<?xml version="1.0" encoding="UTF-8" standalone="no"?>
<svg width="283px" height="53px" viewBox="0 0 283 53" version="1.1" xmlns="http://www.w3.org/2000/svg" xmlns:xlink="http://www.w3.org/1999/xlink">
    <!-- Generator: Sketch 41 (35326) - http://www.bohemiancoding.com/sketch -->
    <title>KPAS$W0RD</title>
    <desc>Created with Sketch.</desc>
    <defs></defs>
    <g id="DLS" stroke="none" stroke-width="1" fill="none" fill-rule="evenodd">
        <g id="Logo" transform="translate(-293.000000, -29.000000)" fill="#383838">
            <path d="M312.617188,74 L301.103516,55.484375 L301.103516,74 L293.779297,74 L293.779297,35.7089844 L301.103516,35.7089844 L301.103516,53.140625 L312.558594,35.7089844 L321.259766,35.7089844 L308.251953,53.9609375 L321.933594,74 L312.617188,74 Z M352.315625,47.8964844 C352.315625,49.8886818 351.983597,51.7294837 351.319531,53.4189453 C350.655465,55.1084069 349.669147,56.5683532 348.360547,57.7988281 C347.051947,59.029303 345.421103,59.9863247 343.467969,60.6699219 C341.514834,61.353519 339.249232,61.6953125 336.671094,61.6953125 L333.008984,61.6953125 L333.008984,74 L325.743359,74 L325.743359,35.7089844 L336.964062,35.7089844 C339.444544,35.7089844 341.636904,35.9775364 343.541211,36.5146484 C345.445517,37.0517605 347.047064,37.8378854 348.345898,38.8730469 C349.644733,39.9082083 350.631051,41.1826096 351.304883,42.6962891 C351.978714,44.2099685 352.315625,45.9433496 352.315625,47.8964844 Z M344.757031,48.3945312 C344.757031,47.3789012 344.5959,46.4560588 344.273633,45.6259766 C343.951366,44.7958943 343.463089,44.0878936 342.808789,43.5019531 C342.154489,42.9160127 341.329302,42.4667984 340.333203,42.1542969 C339.337104,41.8417953 338.155476,41.6855469 336.788281,41.6855469 L333.008984,41.6855469 L333.008984,55.71875 L337.022656,55.71875 C338.272662,55.71875 339.376167,55.5478533 340.333203,55.2060547 C341.290239,54.8642561 342.095895,54.371097 342.750195,53.7265625 C343.404495,53.082028 343.902537,52.3105514 344.244336,51.4121094 C344.586134,50.5136674 344.757031,49.5078181 344.757031,48.3945312 Z M378.478906,74 L376.369531,66.4414062 L363.010156,66.4414062 L360.842187,74 L353.69375,74 L365.031641,35.7089844 L375.109766,35.7089844 L386.447656,74 L378.478906,74 Z M369.777734,42.7402344 L364.738672,60.5527344 L374.758203,60.5527344 L369.777734,42.7402344 Z M415.247656,62.4277344 C415.247656,64.5175886 414.861918,66.3339767 414.09043,67.8769531 C413.318941,69.4199296 412.239851,70.6943309 410.853125,71.7001953 C409.466399,72.7060597 407.816025,73.4531226 405.901953,73.9414062 C403.987881,74.4296899 401.898058,74.6738281 399.632422,74.6738281 C397.620693,74.6738281 395.677353,74.5566418 393.802344,74.3222656 C391.927334,74.0878895 390.071884,73.6972684 388.235937,73.1503906 L388.235937,66.03125 C389.134379,66.3437516 390.07187,66.6367174 391.048437,66.9101562 C392.025005,67.1835951 393.00644,67.4228505 393.992773,67.6279297 C394.979106,67.8330088 395.960542,67.99414 396.937109,68.1113281 C397.913677,68.2285162 398.860933,68.2871094 399.778906,68.2871094 C401.1461,68.2871094 402.308198,68.169923 403.265234,67.9355469 C404.22227,67.7011707 405.003512,67.3789083 405.608984,66.96875 C406.214456,66.5585917 406.653905,66.0703153 406.927344,65.5039062 C407.200782,64.9374972 407.3375,64.3125034 407.3375,63.6289062 C407.3375,62.6914016 407.068948,61.9052766 406.531836,61.2705078 C405.994724,60.635739 405.286723,60.0742212 404.407812,59.5859375 C403.528902,59.0976538 402.527935,58.6582051 401.404883,58.2675781 C400.28183,57.8769512 399.139263,57.4570335 397.977148,57.0078125 C396.815033,56.5585915 395.672466,56.0507841 394.549414,55.484375 C393.426361,54.9179659 392.425395,54.2148479 391.546484,53.375 C390.667574,52.5351521 389.959573,51.5341855 389.422461,50.3720703 C388.885349,49.2099551 388.616797,47.808602 388.616797,46.1679688 C388.616797,44.664055 388.890231,43.238288 389.437109,41.890625 C389.983987,40.542962 390.843353,39.366216 392.015234,38.3603516 C393.187115,37.3544872 394.691006,36.5537139 396.526953,35.9580078 C398.3629,35.3623017 400.579674,35.0644531 403.177344,35.0644531 C403.939066,35.0644531 404.734957,35.0986325 405.565039,35.1669922 C406.395121,35.2353519 407.215425,35.3232417 408.025976,35.4306641 C408.836527,35.5380865 409.61777,35.6650383 410.369726,35.8115234 C411.121683,35.9580085 411.810153,36.1093742 412.435156,36.265625 L412.435156,42.8574219 C411.810153,42.6230457 411.126566,42.4082041 410.384375,42.2128906 C409.642184,42.0175771 408.87559,41.8466804 408.08457,41.7001953 C407.293551,41.5537102 406.49766,41.4414066 405.696875,41.3632812 C404.89609,41.2851559 404.134378,41.2460938 403.411719,41.2460938 C402.142181,41.2460938 401.067973,41.3486318 400.189062,41.5537109 C399.310152,41.7587901 398.587503,42.0419904 398.021094,42.4033203 C397.454685,42.7646502 397.044532,43.2089817 396.790625,43.7363281 C396.536717,44.2636745 396.409765,44.8496062 396.409765,45.4941406 C396.409765,46.2949259 396.678317,46.9833956 397.21543,47.5595703 C397.752542,48.1357451 398.465425,48.653318 399.354101,49.1123047 C400.242778,49.5712914 401.248627,50.0009746 402.37168,50.4013672 C403.494732,50.8017598 404.647064,51.231443 405.828711,51.6904297 C407.010357,52.1494164 408.16269,52.6718721 409.285742,53.2578125 C410.408795,53.8437529 411.414644,54.5566364 412.30332,55.3964844 C413.191996,56.2363323 413.90488,57.2275333 414.441992,58.3701172 C414.979104,59.512701 415.247656,60.8652266 415.247656,62.4277344 Z M433.823047,67.8183594 C434.877739,67.7011713 435.776168,67.5058607 436.518359,67.2324219 C437.26055,66.958983 437.86113,66.6220723 438.320117,66.2216797 C438.779104,65.8212871 439.116014,65.3769556 439.330859,64.8886719 C439.545704,64.4003882 439.653125,63.8730497 439.653125,63.3066406 C439.653125,62.1933538 439.296683,61.2949253 438.583789,60.6113281 C437.870895,59.927731 436.723445,59.3320338 435.141406,58.8242188 L433.823047,67.8183594 Z M436.283984,51.3828125 C437.592584,51.8515648 438.906048,52.364255 440.224414,52.9208984 C441.54278,53.4775418 442.734174,54.1660115 443.798633,54.9863281 C444.863091,55.8066447 445.72734,56.7978458 446.391406,57.9599609 C447.055472,59.1220761 447.3875,60.5331948 447.3875,62.1933594 C447.3875,64.0879001 447.021293,65.743157 446.288867,67.1591797 C445.556441,68.5752024 444.545709,69.7665967 443.25664,70.7333984 C441.967571,71.7002001 440.444149,72.447263 438.686328,72.9746094 C436.928507,73.5019558 435.014463,73.8242182 432.94414,73.9414062 L431.860156,81.265625 L426.703906,81.265625 L427.758594,73.8828125 C425.024205,73.7070304 422.367981,73.2675816 419.789844,72.5644531 L419.789844,65.7089844 C421.176569,66.1582054 422.636516,66.5732403 424.169726,66.9541016 C425.702937,67.3349628 427.201946,67.6035148 428.666797,67.7597656 L430.219531,57.1542969 C428.949993,56.7246072 427.695123,56.2314481 426.454883,55.6748047 C425.214642,55.1181613 424.106255,54.4345744 423.129687,53.6240234 C422.15312,52.8134725 421.362112,51.8271542 420.75664,50.6650391 C420.151169,49.5029239 419.848437,48.1015707 419.848437,46.4609375 C419.848437,45.0937432 420.112107,43.794928 420.639453,42.5644531 C421.166799,41.3339782 421.982221,40.2353564 423.085742,39.2685547 C424.189263,38.301753 425.595499,37.5058625 427.304492,36.8808594 C429.013485,36.2558562 431.049597,35.8847662 433.41289,35.7675781 L434.321094,29.7910156 L439.477344,29.7910156 L438.56914,36.03125 C439.604302,36.1289067 440.624799,36.2558586 441.630664,36.4121094 C442.636528,36.5683602 443.598433,36.7539052 444.516406,36.96875 L444.516406,43.2675781 C443.461713,42.9355452 442.34356,42.6425794 441.161914,42.3886719 C439.980267,42.1347644 438.813287,41.9492193 437.660937,41.8320312 L436.283984,51.3828125 Z M432.504687,41.7734375 C430.649209,41.968751 429.345511,42.422848 428.593554,43.1357422 C427.841598,43.8486364 427.465625,44.7519477 427.465625,45.8457031 C427.465625,46.7246138 427.797653,47.4667938 428.461719,48.0722656 C429.125784,48.6777374 430.092572,49.2246069 431.362109,49.7128906 L432.504687,41.7734375 Z M478.824219,74 L470.357422,74 L466.578125,62.1933594 L465.201172,57.3886719 L463.882812,62.3105469 L460.162109,74 L452.046875,74 L449.908203,35.7089844 L456.265625,35.7089844 L457.173828,60.2597656 L457.408203,66.96875 L459.136719,60.9921875 L463.355469,47.3691406 L467.896484,47.3691406 L472.349609,61.8125 L473.785156,66.9101562 L473.902344,60.9335938 L474.86914,35.7089844 L480.992187,35.7089844 L478.824219,74 Z M512.165234,54.6933594 C512.165234,57.8379063 511.823441,60.6503782 511.139843,63.1308594 C510.456246,65.6113405 509.45528,67.7060461 508.136914,69.4150391 C506.818548,71.124032 505.212119,72.4277299 503.317578,73.3261719 C501.423037,74.2246139 499.25509,74.6738281 496.813672,74.6738281 C494.704286,74.6738281 492.760946,74.3027381 490.983593,73.5605469 C489.206241,72.8183557 487.673053,71.6513751 486.383984,70.0595703 C485.094915,68.4677655 484.089066,66.431653 483.366406,63.9511719 C482.643746,61.4706907 482.282422,58.5019704 482.282422,55.0449219 C482.282422,51.9003749 482.629098,49.087903 483.322461,46.6074219 C484.015823,44.1269407 485.01679,42.0322351 486.32539,40.3232422 C487.633991,38.6142493 489.245303,37.3105514 491.159375,36.4121094 C493.073447,35.5136674 495.241394,35.0644531 497.663281,35.0644531 C499.772667,35.0644531 501.716006,35.4355432 503.493359,36.1777344 C505.270712,36.9199256 506.799017,38.0820233 508.07832,39.6640625 C509.357623,41.2461017 510.35859,43.2773313 511.08125,45.7578125 C511.80391,48.2382937 512.165234,51.2167795 512.165234,54.6933594 Z M489.489453,54.8105469 L489.489453,55.9091797 C489.489453,56.2509783 489.508984,56.5976545 489.548047,56.9492188 L503.903515,46.578125 C503.219918,44.6445216 502.316607,43.2138718 501.193554,42.2861328 C500.070502,41.3583938 498.747273,40.8945312 497.223828,40.8945312 C496.130072,40.8945312 495.114458,41.1728488 494.176953,41.7294922 C493.239448,42.2861356 492.424027,43.1406192 491.730664,44.2929688 C491.037301,45.4453183 490.490431,46.8906163 490.090039,48.6289062 C489.689646,50.3671962 489.489453,52.4277225 489.489453,54.8105469 Z M504.958203,54.9277344 C504.958203,54.5957015 504.948437,54.2587908 504.928906,53.9169922 C504.909375,53.5751936 504.899609,53.2480484 504.899609,52.9355469 L490.632031,63.2480469 C491.257034,65.1425876 492.135932,66.5488235 493.26875,67.4667969 C494.401568,68.3847702 495.719914,68.84375 497.223828,68.84375 C498.317583,68.84375 499.338081,68.5605497 500.285351,67.9941406 C501.232622,67.4277315 502.052926,66.5732479 502.746289,65.4306641 C503.439652,64.2880802 503.981638,62.8427822 504.372265,61.0947266 C504.762892,59.3466709 504.958203,57.2910274 504.958203,54.9277344 Z M535.603906,74 L530.213281,61.6953125 C529.705466,60.5234316 528.997465,59.6396514 528.089257,59.0439453 C527.18105,58.4482392 526.111725,58.1503906 524.88125,58.1503906 L523.504297,58.1503906 L523.504297,74 L516.297265,74 L516.297265,35.7089844 L527.459375,35.7089844 C529.56876,35.7089844 531.482804,35.8896466 533.201562,36.2509766 C534.920321,36.6123065 536.38515,37.2128864 537.596093,38.0527344 C538.807037,38.8925823 539.739645,39.9863214 540.393945,41.3339844 C541.048245,42.6816474 541.37539,44.3320215 541.37539,46.2851562 C541.37539,47.6914133 541.170314,48.9414008 540.760156,50.0351562 C540.349998,51.1289117 539.773832,52.0712851 539.03164,52.8623047 C538.289449,53.6533243 537.405669,54.2929663 536.380273,54.78125 C535.354877,55.2695337 534.236724,55.6113271 533.025781,55.8066406 C533.963286,56.0019541 534.822652,56.5341753 535.603906,57.4033203 C536.38516,58.2724653 537.166402,59.5273355 537.947656,61.1679688 L544.070703,74 L535.603906,74 Z M533.816797,46.9882812 C533.816797,45.1132719 533.221099,43.7656291 532.029687,42.9453125 C530.838275,42.1249959 529.051183,41.7148438 526.668359,41.7148438 L523.504297,41.7148438 L523.504297,52.5253906 L526.433984,52.5253906 C527.547271,52.5253906 528.558003,52.4082043 529.466211,52.1738281 C530.374418,51.939452 531.150778,51.587893 531.795312,51.1191406 C532.439847,50.6503883 532.937889,50.0693394 533.289453,49.3759766 C533.641017,48.6826137 533.816797,47.8867232 533.816797,46.9882812 Z M575.741796,54.3710938 C575.741796,57.3398586 575.375589,60.0351441 574.643164,62.4570312 C573.910738,64.8789184 572.768171,66.9443274 571.215429,68.6533203 C569.662687,70.3623132 567.675402,71.6806594 565.253515,72.6083984 C562.831628,73.5361375 559.931267,74 556.552343,74 L546.825781,74 L546.825781,35.7089844 L558.163671,35.7089844 C561.093374,35.7089844 563.656825,36.0751917 565.854101,36.8076172 C568.051378,37.5400427 569.882414,38.6679611 571.347265,40.1914062 C572.812116,41.7148514 573.910738,43.6484258 574.643164,45.9921875 C575.375589,48.3359492 575.741796,51.12889 575.741796,54.3710938 Z M568.007421,54.8398438 C568.007421,52.7695209 567.841408,50.9238362 567.509375,49.3027344 C567.177342,47.6816325 566.615824,46.3095759 565.824804,45.1865234 C565.033785,44.0634709 563.974225,43.2089873 562.646093,42.6230469 C561.317962,42.0371064 559.667588,41.7441406 557.694921,41.7441406 L554.032812,41.7441406 L554.032812,67.9648438 L557.196875,67.9648438 C560.732049,67.9648438 563.417569,66.9101668 565.253515,64.8007812 C567.089462,62.6913957 568.007421,59.3711164 568.007421,54.8398438 Z" id="KPAS$W0RD"></path>
        </g>
    </g>
</svg>