<?xml version="1.0" encoding="UTF-8" standalone="no"?>
<svg width="60px" height="58px" viewBox="0 0 60 58" version="1.1" xmlns="http://www.w3.org/2000/svg" xmlns:xlink="http://www.w3.org/1999/xlink">
    <!-- Generator: Sketch 41 (35326) - http://www.bohemiancoding.com/sketch -->
    <title>Page 1</title>
    <desc>Created with Sketch.</desc>
    <defs></defs>
    <g id="Low-Fi-UX-" stroke="none" stroke-width="1" fill="none" fill-rule="evenodd">
        <g id="Page:-Team-Members" transform="translate(-495.000000, -242.000000)">
            <g id="pic" transform="translate(489.000000, 234.000000)">
                <g id="Page-1" transform="translate(7.300000, 8.295455)">
                    <polygon id="Fill-1" fill="#FFFFFF" points="44.3944029 56.4013742 9.43942015 56.4013742 9.43942015 0.190056195 44.3944029 0.190056195"></polygon>
                    <path d="M44.3944029,56.4013742 L9.43942015,56.4013742 L9.43942015,1.18956569 C9.43942015,0.637551839 9.88138028,0.190056195 10.4292484,0.190056195 L43.4045747,0.190056195 C43.9512417,0.190056195 44.3944029,0.642526015 44.3944029,1.18956569 L44.3944029,56.4013742 Z" id="Stroke-2" stroke="#F58E3D" stroke-width="0.66" stroke-linecap="round" stroke-linejoin="round"></path>
                    <polygon id="Fill-4" fill="#FDF1E5" points="13.5393477 10.3809272 40.5931118 10.3809272 40.5931118 4.53532178 13.5393477 4.53532178"></polygon>
                    <polygon id="Stroke-5" stroke="#F58E3D" stroke-width="0.66" stroke-linecap="round" stroke-linejoin="round" points="13.5393477 10.3809272 40.5931118 10.3809272 40.5931118 4.53532178 13.5393477 4.53532178"></polygon>
                    <polygon id="Fill-6" fill="#FDF1E5" points="13.5393477 20.2989603 40.5931118 20.2989603 40.5931118 14.4533549 13.5393477 14.4533549"></polygon>
                    <polygon id="Stroke-7" stroke="#F58E3D" stroke-width="0.66" stroke-linecap="round" stroke-linejoin="round" points="13.5393477 20.2989603 40.5931118 20.2989603 40.5931118 14.4533549 13.5393477 14.4533549"></polygon>
                    <polygon id="Fill-8" fill="#FDF1E5" points="13.5393477 30.3158166 40.5931118 30.3158166 40.5931118 24.4702112 13.5393477 24.4702112"></polygon>
                    <polygon id="Stroke-9" stroke="#F58E3D" stroke-width="0.66" stroke-linecap="round" stroke-linejoin="round" points="13.5393477 30.3158166 40.5931118 30.3158166 40.5931118 24.4702112 13.5393477 24.4702112"></polygon>
                    <polygon id="Fill-10" fill="#FDF1E5" points="13.5393477 40.2048472 40.5931118 40.2048472 40.5931118 34.3592418 13.5393477 34.3592418"></polygon>
                    <polygon id="Stroke-11" stroke="#F58E3D" stroke-width="0.66" stroke-linecap="round" stroke-linejoin="round" points="13.5393477 40.2048472 40.5931118 40.2048472 40.5931118 34.3592418 13.5393477 34.3592418"></polygon>
                    <polygon id="Fill-12" fill="#FDF1E5" points="21.9654668 56.4013742 31.9692469 56.4013742 31.9692469 44.7713908 21.9654668 44.7713908"></polygon>
                    <g id="Group-21" transform="translate(0.000000, 44.463636)">
                        <polygon id="Stroke-13" stroke="#F58E3D" stroke-width="0.66" stroke-linecap="round" stroke-linejoin="round" points="21.9654668 11.9377378 31.9692469 11.9377378 31.9692469 0.307754419 21.9654668 0.307754419"></polygon>
                        <path d="M14.4672458,11.9377378 C15.1350075,10.7926781 15.5444891,9.48058562 15.5444891,8.0610767 C15.5444891,3.77945539 12.0665861,0.307754419 7.77671511,0.307754419 C3.4868441,0.307754419 0.00894115479,3.77945539 0.00894115479,8.0610767 C0.00894115479,9.48058562 0.418422727,10.7926781 1.0861844,11.9377378 L14.4672458,11.9377378 Z" id="Fill-15" fill="#FDF1E5"></path>
                        <path d="M14.4672458,11.9377378 C15.1350075,10.7926781 15.5444891,9.48058562 15.5444891,8.0610767 C15.5444891,3.77945539 12.0665861,0.307754419 7.77671511,0.307754419 C3.4868441,0.307754419 0.00894115479,3.77945539 0.00894115479,8.0610767 C0.00894115479,9.48058562 0.418422727,10.7926781 1.0861844,11.9377378 L14.4672458,11.9377378 L14.4672458,11.9377378 Z" id="Stroke-16" stroke="#F58E3D" stroke-width="0.66" stroke-linecap="round" stroke-linejoin="round"></path>
                        <path d="M57.2597651,11.9377378 C57.7948892,11.0198639 58.1231201,9.96852503 58.1231201,8.83071586 C58.1231201,5.39875899 55.3355784,2.61640334 51.8974936,2.61640334 C48.4591398,2.61640334 45.671598,5.39875899 45.671598,8.83071586 C45.671598,9.96852503 45.999829,11.0198639 46.5349531,11.9377378 L57.2597651,11.9377378 Z" id="Fill-17" fill="#FDF1E5"></path>
                        <path d="M57.2597651,11.9377378 C57.7948892,11.0198639 58.1231201,9.96852503 58.1231201,8.83071586 C58.1231201,5.39875899 55.3355784,2.61640334 51.8974936,2.61640334 C48.4591398,2.61640334 45.671598,5.39875899 45.671598,8.83071586 C45.671598,9.96852503 45.999829,11.0198639 46.5349531,11.9377378 L57.2597651,11.9377378 L57.2597651,11.9377378 Z" id="Stroke-18" stroke="#F58E3D" stroke-width="0.66"></path>
                        <path d="M51.0361295,11.9377378 C51.7038912,10.7926781 52.1133727,9.48058562 52.1133727,8.0610767 C52.1133727,3.77945539 48.6352007,0.307754419 44.3455988,0.307754419 C40.0557278,0.307754419 36.5778248,3.77945539 36.5778248,8.0610767 C36.5778248,9.48058562 36.9873064,10.7926781 37.6550681,11.9377378 L51.0361295,11.9377378 Z" id="Fill-19" fill="#FDF1E5"></path>
                        <path d="M51.0361295,11.9377378 C51.7038912,10.7926781 52.1133727,9.48058562 52.1133727,8.0610767 C52.1133727,3.77945539 48.6352007,0.307754419 44.3455988,0.307754419 C40.0557278,0.307754419 36.5778248,3.77945539 36.5778248,8.0610767 C36.5778248,9.48058562 36.9873064,10.7926781 37.6550681,11.9377378 L51.0361295,11.9377378 L51.0361295,11.9377378 Z" id="Stroke-20" stroke="#F58E3D" stroke-width="0.66" stroke-linecap="round" stroke-linejoin="round"></path>
                    </g>
                </g>
            </g>
        </g>
    </g>
</svg>