<?xml version="1.0" encoding="UTF-8" standalone="no"?>
<svg width="47px" height="61px" viewBox="0 0 47 61" version="1.1" xmlns="http://www.w3.org/2000/svg" xmlns:xlink="http://www.w3.org/1999/xlink">
    <!-- Generator: Sketch 41 (35326) - http://www.bohemiancoding.com/sketch -->
    <title>Page 1</title>
    <desc>Created with Sketch.</desc>
    <defs></defs>
    <g id="Low-Fi-UX-" stroke="none" stroke-width="1" fill="none" fill-rule="evenodd">
        <g id="Page:-Personal-Entries" transform="translate(-530.000000, -435.000000)">
            <g id="Page-1" transform="translate(530.244141, 435.495117)">
                <path d="M31.634878,4.26552585 L27.6971878,4.26552585 L27.6971878,7.21186001 L18.8374517,7.21186001 L18.8374517,4.26552585 L14.8997615,4.26552585 L2.15279441,4.26552585 C1.03761834,4.26552585 0.133623563,5.16737791 0.133623563,6.28017705 L0.133623563,57.2478694 C0.133623563,58.3604022 1.03761834,59.2622542 2.15279441,59.2622542 L44.3818451,59.2622542 C45.4970212,59.2622542 46.4012829,58.3604022 46.4012829,57.2478694 L46.4012829,6.28017705 C46.4012829,5.16737791 45.4970212,4.26552585 44.3818451,4.26552585 L31.634878,4.26552585 Z" id="Fill-1"></path>
                <path d="M27.6971878,4.26552585 L27.6971878,7.21186001 L18.8374517,7.21186001 L18.8374517,4.26552585 L14.8997615,4.26552585 L0.46977881,4.26552585 C0.284125394,4.26552585 0.133623563,4.4104146 0.133623563,4.59820452 L0.133623563,6.28017705 L0.133623563,57.2478694 C0.133623563,58.3604022 1.03761834,59.2622542 2.15279441,59.2622542 L44.3818451,59.2622542 C45.4970212,59.2622542 46.4012829,58.3604022 46.4012829,57.2478694 L46.4012829,6.28017705 L46.4012833,4.59820452 C46.4012833,4.41447117 46.255135,4.26552585 46.065122,4.26552585 L31.634878,4.26552585 L27.6971878,4.26552585 Z" id="Stroke-3" stroke="#F58E3D" stroke-width="0.66"></path>
                <path d="M32.9556555,2.30150728 L27.6972145,2.30150728 L27.6972145,1.11572896 C27.6972145,0.559329393 27.2452171,0.108403363 26.6874956,0.108403363 L19.8471973,0.108403363 C19.2894758,0.108403363 18.8374784,0.559329393 18.8374784,1.11572896 L18.8374784,2.30150728 L13.79983,2.30150728 C12.818144,2.30150728 12.0222762,3.09548867 12.0222762,4.07511415 L12.0222762,6.46638047 C12.0222762,7.4457396 12.818144,8.23972099 13.79983,8.23972099 L32.9556555,8.23972099 C33.9373415,8.23972099 34.7332093,7.4457396 34.7332093,6.46638047 L34.7332093,4.07511415 C34.7332093,3.09548867 33.9373415,2.30150728 32.9556555,2.30150728" id="Fill-5" fill="#FDF1E5"></path>
                <path d="M32.9556555,2.30150728 L27.6972145,2.30150728 L27.6972145,1.11572896 C27.6972145,0.559329393 27.2452171,0.108403363 26.6874956,0.108403363 L19.8471973,0.108403363 C19.2894758,0.108403363 18.8374784,0.559329393 18.8374784,1.11572896 L18.8374784,2.30150728 L13.79983,2.30150728 C12.818144,2.30150728 12.0222762,3.09548867 12.0222762,4.07511415 L12.0222762,6.46638047 C12.0222762,7.4457396 12.818144,8.23972099 13.79983,8.23972099 L32.9556555,8.23972099 C33.9373415,8.23972099 34.7332093,7.4457396 34.7332093,6.46638047 L34.7332093,4.07511415 C34.7332093,3.09548867 33.9373415,2.30150728 32.9556555,2.30150728 L32.9556555,2.30150728 Z" id="Stroke-7" stroke="#F58E3D" stroke-width="0.66"></path>
                <path d="M12.7927542,22.648712 L8.74319932,22.648712 C8.01434352,22.648712 7.41790987,22.0536921 7.41790987,21.3265639 L7.41790987,17.2866076 C7.41790987,16.5594794 8.01434352,15.9647258 8.74319932,15.9647258 L12.7927542,15.9647258 C13.52161,15.9647258 14.1180436,16.5594794 14.1180436,17.2866076 L14.1180436,21.3265639 C14.1180436,22.0536921 13.52161,22.648712 12.7927542,22.648712 L12.7927542,22.648712 Z" id="Stroke-9" stroke="#F58E3D" stroke-width="0.66"></path>
                <path d="M12.7927542,35.8955231 L8.74319932,35.8955231 C8.01434352,35.8955231 7.41790987,35.3005032 7.41790987,34.573375 L7.41790987,30.5334187 C7.41790987,29.8062904 8.01434352,29.2115369 8.74319932,29.2115369 L12.7927542,29.2115369 C13.52161,29.2115369 14.1180436,29.8062904 14.1180436,30.5334187 L14.1180436,34.573375 C14.1180436,35.3005032 13.52161,35.8955231 12.7927542,35.8955231" id="Fill-11" fill="#FDF1E5"></path>
                <path d="M12.7927542,35.8955231 L8.74319932,35.8955231 C8.01434352,35.8955231 7.41790987,35.3005032 7.41790987,34.573375 L7.41790987,30.5334187 C7.41790987,29.8062904 8.01434352,29.2115369 8.74319932,29.2115369 L12.7927542,29.2115369 C13.52161,29.2115369 14.1180436,29.8062904 14.1180436,30.5334187 L14.1180436,34.573375 C14.1180436,35.3005032 13.52161,35.8955231 12.7927542,35.8955231 L12.7927542,35.8955231 Z" id="Stroke-13" stroke="#F58E3D" stroke-width="0.66"></path>
                <path d="M12.7927542,49.1423342 L8.74319932,49.1423342 C8.01434352,49.1423342 7.41790987,48.5473142 7.41790987,47.820186 L7.41790987,43.7802297 C7.41790987,43.0531015 8.01434352,42.4583479 8.74319932,42.4583479 L12.7927542,42.4583479 C13.52161,42.4583479 14.1180436,43.0531015 14.1180436,43.7802297 L14.1180436,47.820186 C14.1180436,48.5473142 13.52161,49.1423342 12.7927542,49.1423342" id="Fill-15" fill="#FDF1E5"></path>
                <path d="M12.7927542,49.1423342 L8.74319932,49.1423342 C8.01434352,49.1423342 7.41790987,48.5473142 7.41790987,47.820186 L7.41790987,43.7802297 C7.41790987,43.0531015 8.01434352,42.4583479 8.74319932,42.4583479 L12.7927542,42.4583479 C13.52161,42.4583479 14.1180436,43.0531015 14.1180436,43.7802297 L14.1180436,47.820186 C14.1180436,48.5473142 13.52161,49.1423342 12.7927542,49.1423342 L12.7927542,49.1423342 Z" id="Stroke-17" stroke="#F58E3D" stroke-width="0.66"></path>
                <path d="M19.1267781,19.2454545 L38.4366511,19.2454545" id="Stroke-19" stroke="#F58E3D" stroke-width="0.66" stroke-linecap="round"></path>
                <path d="M19.1267781,32.5181818 L38.4366511,32.5181818" id="Stroke-21" stroke="#F58E3D" stroke-width="0.66" stroke-linecap="round"></path>
                <path d="M19.1267781,45.7909091 L38.4366511,45.7909091" id="Stroke-23" stroke="#F58E3D" stroke-width="0.66" stroke-linecap="round"></path>
                <polyline id="Stroke-25" stroke="#F58E3D" stroke-width="0.66" stroke-linecap="round" stroke-linejoin="round" points="9.28719807 45.8002878 10.3756761 46.7913662 12.2488088 44.8092094"></polyline>
                <polyline id="Stroke-27" stroke="#F58E3D" stroke-width="0.66" stroke-linecap="round" stroke-linejoin="round" points="9.28719807 32.5534767 10.3756761 33.5445551 12.2488088 31.5623983"></polyline>
            </g>
        </g>
    </g>
</svg>