<?xml version="1.0" encoding="UTF-8" standalone="no"?>
<svg width="37px" height="61px" viewBox="0 0 37 61" version="1.1" xmlns="http://www.w3.org/2000/svg" xmlns:xlink="http://www.w3.org/1999/xlink">
    <!-- Generator: Sketch 41 (35326) - http://www.bohemiancoding.com/sketch -->
    <title>Page 1</title>
    <desc>Created with Sketch.</desc>
    <defs></defs>
    <g id="Low-Fi-UX-" stroke="none" stroke-width="1" fill="none" fill-rule="evenodd">
        <g id="Page:-Team-Members" transform="translate(-606.000000, -239.000000)">
            <g id="Page-1" transform="translate(607.000000, 240.000000)">
                <g id="Group-7">
                    <path d="M20.3553532,0.561164876 L1.46334533,0.561164876 C0.762635826,0.561164876 0.194412273,1.12531612 0.194412273,1.82901198 L0.194412273,58.7944413 C0.194412273,59.4191343 0.94806186,59.7327025 1.38895773,59.2901777 L17.9814656,46.0489128 L34.4344288,59.2901777 C34.8753247,59.7327025 35.6289743,59.4191343 35.6289743,58.7944413 L35.6289743,1.82901198 C35.6289743,1.12884545 35.0580358,0.561164876 34.3600412,0.561164876 L20.3553532,0.561164876 Z" id="Fill-1" fill="#FFFFFF"></path>
                    <path d="M20.3553532,0.561164876 L1.46334533,0.561164876 C0.762635826,0.561164876 0.194412273,1.12531612 0.194412273,1.82901198 L0.194412273,58.7944413 C0.194412273,59.4191343 0.94806186,59.7327025 1.38895773,59.2901777 L17.9814656,46.0489128 L34.4344288,59.2901777 C34.8753247,59.7327025 35.6289743,59.4191343 35.6289743,58.7944413 L35.6289743,1.82901198 C35.6289743,1.12884545 35.0580358,0.561164876 34.3600412,0.561164876 L20.3553532,0.561164876 L20.3553532,0.561164876 Z" id="Stroke-3" stroke="#F58E3D" stroke-width="0.66" stroke-linecap="round" stroke-linejoin="round"></path>
                    <path d="M35.6289743,9.9907438 L0.194412273,9.9907438 L0.194412273,0.965681405 C0.194412273,0.569852479 0.76453624,0.248954132 1.46768913,0.248954132 L34.3556974,0.248954132 C35.0588503,0.248954132 35.6289743,0.566051653 35.6289743,0.965681405 L35.6289743,9.9907438 Z" id="Fill-5" fill="#FDF1E5"></path>
                </g>
                <g id="Group-18">
                    <path d="M35.6289743,9.9907438 L0.194412273,9.9907438 L0.194412273,0.965681405 C0.194412273,0.569852479 0.76453624,0.248954132 1.46768913,0.248954132 L34.3556974,0.248954132 C35.0588503,0.248954132 35.6289743,0.566051653 35.6289743,0.965681405 L35.6289743,9.9907438 L35.6289743,9.9907438 Z" id="Stroke-12" stroke="#F58E3D" stroke-width="0.66"></path>
                    <path d="M18.4838805,19.3631746 C18.167326,18.7401105 17.6506851,18.7466262 17.3373884,19.3631746 L14.8635933,24.2320333 L9.29918343,25.0177184 C8.60879045,25.1151824 8.46137269,25.584313 8.96525368,26.0615882 L12.9808268,29.8626862 L12.0365929,35.2074626 C11.9149665,35.8964981 12.3254557,36.194863 12.9482483,35.8766795 L17.9104987,33.3420713 L22.8735636,35.8766795 C23.4987995,36.1962205 23.9063024,35.8929688 23.785219,35.2074626 L22.8412566,29.8626862 L26.8568297,26.0615882 C27.3626111,25.5826841 27.2151933,25.1157254 26.5229,25.0177184 L20.95849,24.2320333 L18.4838805,19.3631746 Z" id="Fill-14" fill="#FDF1E5"></path>
                    <path d="M18.4838805,19.3631746 C18.167326,18.7401105 17.6506851,18.7466262 17.3373884,19.3631746 L14.8635933,24.2320333 L9.29918343,25.0177184 C8.60879045,25.1151824 8.46137269,25.584313 8.96525368,26.0615882 L12.9808268,29.8626862 L12.0365929,35.2074626 C11.9149665,35.8964981 12.3254557,36.194863 12.9482483,35.8766795 L17.9104987,33.3420713 L22.8735636,35.8766795 C23.4987995,36.1962205 23.9063024,35.8929688 23.785219,35.2074626 L22.8412566,29.8626862 L26.8568297,26.0615882 C27.3626111,25.5826841 27.2151933,25.1157254 26.5229,25.0177184 L20.95849,24.2320333 L18.4838805,19.3631746 L18.4838805,19.3631746 Z" id="Stroke-16" stroke="#F58E3D" stroke-width="0.66" stroke-linecap="round" stroke-linejoin="round"></path>
                </g>
            </g>
        </g>
    </g>
</svg>