<?xml version="1.0" encoding="UTF-8" standalone="no"?>
<svg width="49px" height="57px" viewBox="0 0 49 57" version="1.1" xmlns="http://www.w3.org/2000/svg" xmlns:xlink="http://www.w3.org/1999/xlink">
    <!-- Generator: Sketch 41 (35326) - http://www.bohemiancoding.com/sketch -->
    <title>memberPicA</title>
    <desc>Created with Sketch.</desc>
    <defs></defs>
    <g id="Low-Fi-UX-" stroke="none" stroke-width="1" fill="none" fill-rule="evenodd">
        <g id="Page:-Team-Members" transform="translate(-486.000000, -371.000000)">
            <g id="memberPicA" transform="translate(487.000000, 372.000000)">
                <path d="M1.31130936,39.0343222 C1.31130936,35.4475954 7.47006995,29.8085746 14.6460137,29.8085746 L18.0636352,29.8085746 C18.0465484,32.5756778 20.424981,35.0216085 23.6160728,35.0728512 C26.5886606,35.1207294 29.1511648,32.7806484 29.1511648,29.8085746 L32.5858731,29.8085746 C39.7618168,29.8085746 45.6655464,35.3377488 45.6655464,38.9244755" id="Fill-1" fill="#FDF1E5"></path>
                <path d="M1.14837991,39.0893841 C1.14837991,35.5026573 7.19607838,29.8636364 14.4207995,29.8636364 L17.8616518,29.8636364 L29.0245471,29.8636364 L32.4826024,29.8636364 C39.7073235,29.8636364 45.9079474,35.5026572 45.9079474,39.0893839" id="Stroke-3" stroke="#F58E3D" stroke-width="0.66"></path>
                <path d="M47.1181818,31.7942149 C47.1181818,44.8221305 36.5702886,55.3834711 23.5590909,55.3834711 C10.5476335,55.3834711 0,44.8221305 0,31.7942149 C0,18.7662993 10.5476335,8.20495868 23.5590909,8.20495868 C36.5702886,8.20495868 47.1181818,18.7662993 47.1181818,31.7942149 L47.1181818,31.7942149 Z" id="Stroke-5" stroke="#F58E3D" stroke-width="0.66"></path>
                <path d="M28.997953,2.90812395 L18.2340374,2.90812395 C15.2609319,2.90812395 12.8519501,5.31626974 12.8519501,8.28834349 L12.8519501,17.255031 C12.8519501,23.1973669 17.671467,28.0152112 23.6158657,28.0152112 C29.5602645,28.0152112 34.3800403,23.1973669 34.3800403,17.255031 L34.3800403,8.28834349 C34.3800403,5.31626974 31.9710585,2.90812395 28.997953,2.90812395" id="Fill-11" fill="#FFFFFF"></path>
                <path d="M28.997953,2.90812395 L18.2340374,2.90812395 C15.2609319,2.90812395 12.8519501,5.31626974 12.8519501,8.28834349 L12.8519501,17.255031 C12.8519501,23.1973669 17.671467,28.0152112 23.6158657,28.0152112 C29.5602645,28.0152112 34.3800403,23.1973669 34.3800403,17.255031 L34.3800403,8.28834349 C34.3800403,5.31626974 31.9710585,2.90812395 28.997953,2.90812395 L28.997953,2.90812395 Z" id="Stroke-13" stroke="#F58E3D" stroke-width="0.66"></path>
                <path d="M23.6159693,28.2342348 C21.6538336,28.2342348 19.8177778,27.7000689 18.233882,26.7823596 L18.233882,29.5349699 C18.233882,32.5070437 20.6428638,34.9149307 23.6159693,34.9149307 C26.5890748,34.9149307 28.9980565,32.5070437 28.9980565,29.5349699 L28.9980565,26.7823596 C27.4141607,27.7000689 25.578105,28.2342348 23.6159693,28.2342348" id="Fill-15" fill="#FFFFFF"></path>
                <path d="M18.2338825,26.5549499 L18.233882,29.5349699 C18.233882,32.5070437 20.6428638,34.9149307 23.6159693,34.9149307 C26.5890748,34.9149307 28.9980565,32.5070437 28.9980565,29.5349699 L28.9980571,26.5549499 C27.4141613,27.4726592 25.5781053,28.006825 23.6159695,28.006825 C21.6538341,28.006825 19.8177783,27.4726592 18.2338825,26.5549499 Z" id="Stroke-17" stroke="#F58E3D" stroke-width="0.66"></path>
                <path d="M34.3799108,13.6683301 L34.3799108,17.2550569 C34.3799108,17.8681571 34.3167414,18.4634 34.2188805,19.0485496 L34.3799108,19.0485496 C35.3714638,19.0485496 36.1740262,18.2462657 36.1740262,17.2550569 L36.1740262,15.4618229 C36.1740262,14.470614 35.3714638,13.6683301 34.3799108,13.6683301 L34.3799108,13.6683301 Z" id="Stroke-19" stroke="#F58E3D" stroke-width="0.66" stroke-linecap="round" stroke-linejoin="round"></path>
                <path d="M12.8520278,17.2550827 L12.8520278,13.668356 C11.8604748,13.668356 11.0579124,14.4706399 11.0579124,15.46159 L11.0579124,17.2550827 C11.0579124,18.2462916 11.8604748,19.0485755 12.8520278,19.0485755 L13.013058,19.0485755 C12.9151972,18.4634258 12.8520278,17.8679241 12.8520278,17.2550827 L12.8520278,17.2550827 Z" id="Stroke-21" stroke="#F58E3D" stroke-width="0.66" stroke-linecap="round" stroke-linejoin="round"></path>
                <path d="M27.2039412,0.129452394 L20.0279974,0.129452394 C14.8071993,0.129452394 10.7428678,3.83781574 11.0579383,9.09639868 C11.2435632,12.1955439 11.2435632,12.1955439 11.5643293,13.0030038 C12.534912,13.4111334 13.5702176,13.687792 14.6459101,13.8417787 C15.2328163,13.9258891 15.8285247,13.9838606 16.4400255,13.9838606 C18.799818,13.9838606 21.0003924,13.8143458 22.8853786,12.6831254 C25.5449669,11.0876156 28.0903843,8.53764675 28.9980565,5.50967193 C28.9980565,9.56741699 31.8588033,12.2485981 35.5573217,13.3554911 C36.0373058,12.3992204 36.1740003,12.7392853 36.1740003,9.09639868 C36.1740003,3.67942937 32.6613657,0.129452394 27.2039412,0.129452394" id="Fill-23" fill="#FDF1E5"></path>
                <path d="M27.2039412,0.129452394 L20.0279974,0.129452394 C14.8071993,0.129452394 10.7428678,3.83781574 11.0579383,9.09639868 C11.2435632,12.1955439 11.2435632,12.1955439 11.5643293,13.0030038 C12.534912,13.4111334 13.5702176,13.687792 14.6459101,13.8417787 C15.2328163,13.9258891 15.8285247,13.9838606 16.4400255,13.9838606 C18.799818,13.9838606 21.0003924,13.8143458 22.8853786,12.6831254 C25.5449669,11.0876156 28.0903843,8.53764675 28.9980565,5.50967193 C28.9980565,9.56741699 31.8588033,12.2485981 35.5573217,13.3554911 C36.0373058,12.3992204 36.1740003,12.7392853 36.1740003,9.09639868 C36.1740003,3.67942937 32.6613657,0.129452394 27.2039412,0.129452394 L27.2039412,0.129452394 Z" id="Stroke-25" stroke="#F58E3D" stroke-width="0.66" stroke-linecap="round" stroke-linejoin="round"></path>
                <path id="Path-170" stroke="#979797" stroke-width="0.66"></path>
                <path d="M45.68778,38.9099668 C42.5968954,48.3401786 33.9318217,55.0471585 23.5590905,55.0471585 C12.9582763,55.0471585 4.26779308,48.2622855 1.3467247,38.6183151" id="Fill-7" fill="#FDF1E5"></path>
            </g>
        </g>
    </g>
</svg>