<?xml version="1.0" encoding="UTF-8" standalone="no"?>
<svg width="51px" height="52px" viewBox="0 0 51 52" version="1.1" xmlns="http://www.w3.org/2000/svg" xmlns:xlink="http://www.w3.org/1999/xlink">
    <!-- Generator: Sketch 41 (35326) - http://www.bohemiancoding.com/sketch -->
    <title>picPost</title>
    <desc>Created with Sketch.</desc>
    <defs></defs>
    <g id="Low-Fi-UX-" stroke="none" stroke-width="1" fill="none" fill-rule="evenodd">
        <g id="Page:-Team-Members" transform="translate(-689.000000, -244.000000)">
            <g id="picPost" transform="translate(690.000000, 245.000000)">
                <path d="M4.52696355,49.7727273 C2.0371336,49.7727273 0,47.7365702 0,45.2479339 L0,27.1487603 L9.05392711,27.1487603 L8.87928065,47.3119754 C8.87928065,47.3119754 8.45143216,49.002395 5.36815609,49.687168" id="Shape" stroke="#F58E3D" stroke-width="0.66" fill="#FDF1E5"></path>
                <path d="M8.69823711,0 L8.69823711,45.2479339 C8.69823711,47.7365702 6.66110351,49.7727273 4.17127356,49.7727273 L44.9139455,49.7727273 C47.4037755,49.7727273 49.4409091,47.7365702 49.4409091,45.2479339 L49.4409091,0 L8.69823711,0 L8.69823711,0 Z" id="Shape" stroke="#F58E3D" stroke-width="0.66" fill="#FFFFFF"></path>
                <g id="Group-2" transform="translate(14.915108, 6.043831)">
                    <path d="M7.43943665,1.99090909 L27.6803457,1.99090909" id="Stroke-5" stroke="#F58E3D" stroke-width="0.66" stroke-linecap="round" stroke-linejoin="round"></path>
                    <path d="M0.547734219,8.29545455 L27.7568251,8.29545455" id="Stroke-7" stroke="#F58E3D" stroke-width="0.66" stroke-linecap="round" stroke-linejoin="round"></path>
                    <path d="M0.547734219,14.6 L27.7568251,14.6" id="Stroke-7" stroke="#F58E3D" stroke-width="0.66" stroke-linecap="round" stroke-linejoin="round"></path>
                    <path d="M2.57044616,0.809202462 C2.56426331,0.868502427 2.53993081,0.945358304 2.49784754,1.03977009 L1.94119166,2.36816735 C1.91825528,2.4229808 1.95934131,2.4832561 2.02017257,2.4832561 L2.77886801,2.4832561 C2.83132251,2.4832561 2.87141131,2.4372206 2.86303454,2.38650352 L2.64284533,1.03977009 C2.62489512,0.951210274 2.61891172,0.874354398 2.61891172,0.809202462 L2.57044616,0.809202462 Z M2.08698723,0.123156478 L3.28785613,0.123156478 C3.32794492,0.123156478 3.36264866,0.150465672 3.37122487,0.188698545 L4.21069625,3.93142368 C4.22226416,3.98331115 4.18177647,4.03266277 4.1273275,4.03266277 L3.20528517,4.03266277 C3.16340135,4.03266277 3.12770038,4.00281772 3.12111864,3.96243912 L2.99905723,3.21572771 C2.99247549,3.17534912 2.95677452,3.14550407 2.9148907,3.14550407 L1.67832084,3.14550407 C1.6436171,3.14550407 1.61250341,3.16598597 1.59933992,3.1975866 L1.27384282,3.98058023 C1.26067934,4.0119858 1.22956564,4.03266277 1.19486191,4.03266277 L0.332853048,4.03266277 C0.270625661,4.03266277 0.229340184,3.96965655 0.255268261,3.91445297 L2.00940244,0.171922897 C2.02336372,0.142272914 2.05367962,0.123156478 2.08698723,0.123156478 L2.08698723,0.123156478 Z" id="Fill-9" fill="#F58E3D"></path>
                </g>
                <g id="Group" transform="translate(15.650360, 27.019481)">
                    <polygon id="Stroke-13" stroke="#F58E3D" stroke-width="0.66" stroke-linecap="round" stroke-linejoin="round" points="26.6456875 16.248657 0.192134752 16.248657 0.192134752 0.205245983 26.6456875 0.205245983"></polygon>
                    <path d="M18.7045615,4.81118166 C18.7045615,3.54135534 17.6736147,2.51101055 16.4026327,2.51101055 C15.131836,2.51101055 14.1007039,3.54135534 14.1007039,4.81118166 C14.1007039,6.08100799 15.131836,7.11135277 16.4026327,7.11135277 C17.6736147,7.11135277 18.7045615,6.08100799 18.7045615,4.81118166 L18.7045615,4.81118166 Z" id="Stroke-15" stroke="#F58E3D" stroke-width="0.66"></path>
                    <path d="M26.6236117,16.5043633 L26.6236117,12.6913653 L22.908904,8.97930878 C22.1152121,8.18640818 20.8297724,8.18640818 20.0360806,8.97930878 L15.5734638,13.4387032 L7.04767124,4.91849458 C6.25416475,4.12652005 4.96872501,4.12652005 4.17503317,4.91849458 L0.214173509,8.87632987 L0.214173509,16.5043633 L26.6236117,16.5043633 Z" id="Fill-16" fill="#FDF1E5"></path>
                    <path d="M26.6236117,16.5043633 L26.6236117,12.6913653 L22.908904,8.97930878 C22.1152121,8.18640818 20.8297724,8.18640818 20.0360806,8.97930878 L15.5734638,13.4387032 L7.04767124,4.91849458 C6.25416475,4.12652005 4.96872501,4.12652005 4.17503317,4.91849458 L0.214173509,8.87632987 L0.214173509,16.5043633 L26.6236117,16.5043633 L26.6236117,16.5043633 Z" id="Stroke-17" stroke="#F58E3D" stroke-width="0.66" stroke-linecap="round" stroke-linejoin="round"></path>
                </g>
            </g>
        </g>
    </g>
</svg>