<?xml version="1.0" encoding="UTF-8" standalone="no"?>
<svg width="57px" height="61px" viewBox="0 0 57 61" version="1.1" xmlns="http://www.w3.org/2000/svg" xmlns:xlink="http://www.w3.org/1999/xlink">
    <!-- Generator: Sketch 41 (35326) - http://www.bohemiancoding.com/sketch -->
    <title>Page 1</title>
    <desc>Created with Sketch.</desc>
    <defs></defs>
    <g id="Low-Fi-UX-" stroke="none" stroke-width="1" fill="none" fill-rule="evenodd">
        <g id="Page:-Team-Members" transform="translate(-447.000000, -339.000000)">
            <g id="Page-1" transform="translate(448.000000, 340.000000)">
                <path d="M31.709698,4.19841013 L27.7626999,4.19841013 L27.7626999,7.14829599 L18.8817546,7.14829599 L18.8817546,4.19841013 L14.9344904,4.19841013 L2.15710512,4.19841013 C1.03923691,4.19841013 0.132914822,5.10153923 0.132914822,6.21546916 L0.132914822,57.2459755 C0.132914822,58.3599054 1.03923691,59.2627693 2.15710512,59.2627693 L44.4870832,59.2627693 C45.6049514,59.2627693 46.5112735,58.3599054 46.5112735,57.2459755 L46.5112735,6.21546916 C46.5112735,5.10153923 45.6049514,4.19841013 44.4870832,4.19841013 L31.709698,4.19841013 Z" id="Fill-1" fill="#FFFFFF"></path>
                <path d="M27.7626999,4.19841013 L27.7626999,7.14829599 L18.8817546,7.14829599 L18.8817546,4.19841013 L14.9344904,4.19841013 L0.469876816,4.19841013 C0.283777846,4.19841013 0.132914822,4.34347204 0.132914822,4.5314864 L0.132914822,6.21546916 L0.132914822,57.2459755 C0.132914822,58.3599054 1.03923691,59.2627693 2.15710512,59.2627693 L44.4870832,59.2627693 C45.6049514,59.2627693 46.5112735,58.3599054 46.5112735,57.2459755 L46.5112735,6.21546916 L46.5112749,4.5314864 C46.511275,4.34753346 46.3647787,4.19841013 46.1743131,4.19841013 L31.709698,4.19841013 L27.7626999,4.19841013 Z" id="Stroke-3" stroke="#F58E3D" stroke-width="0.66"></path>
                <path d="M33.0336307,2.23196982 L27.7625402,2.23196982 L27.7625402,1.04459104 C27.7625402,0.487758655 27.3093792,0.0361941051 26.7505781,0.0361941051 L19.8938231,0.0361941051 C19.334756,0.0361941051 18.8815949,0.487758655 18.8815949,1.04459104 L18.8815949,2.23196982 L13.8321621,2.23196982 C12.847874,2.23196982 12.050119,3.02691434 12.050119,4.00773481 L12.050119,6.40184891 C12.050119,7.38266939 12.847874,8.17761391 13.8321621,8.17761391 L33.0336307,8.17761391 C34.0176528,8.17761391 34.8156739,7.38266939 34.8156739,6.40184891 L34.8156739,4.00773481 C34.8156739,3.02691434 34.0176528,2.23196982 33.0336307,2.23196982" id="Fill-5" fill="#FDF1E5"></path>
                <path d="M33.0336307,2.23196982 L27.7625402,2.23196982 L27.7625402,1.04459104 C27.7625402,0.487758655 27.3093792,0.0361941051 26.7505781,0.0361941051 L19.8938231,0.0361941051 C19.334756,0.0361941051 18.8815949,0.487758655 18.8815949,1.04459104 L18.8815949,2.23196982 L13.8321621,2.23196982 C12.847874,2.23196982 12.050119,3.02691434 12.050119,4.00773481 L12.050119,6.40184891 C12.050119,7.38266939 12.847874,8.17761391 13.8321621,8.17761391 L33.0336307,8.17761391 C34.0176528,8.17761391 34.8156739,7.38266939 34.8156739,6.40184891 L34.8156739,4.00773481 C34.8156739,3.02691434 34.0176528,2.23196982 33.0336307,2.23196982 L33.0336307,2.23196982 Z" id="Stroke-7" stroke="#F58E3D" stroke-width="0.66"></path>
                <path d="M6.47573254,36.8318182 L25.8315367,36.8318182" id="Stroke-9" stroke="#F58E3D" stroke-width="0.66" stroke-linecap="round"></path>
                <path d="M6.47573254,43.4681818 L25.8315367,43.4681818" id="Stroke-11" stroke="#F58E3D" stroke-width="0.66" stroke-linecap="round"></path>
                <path d="M6.47573254,49.7727273 L20.5176047,49.7727273" id="Stroke-13" stroke="#F58E3D" stroke-width="0.66" stroke-linecap="round"></path>
                <path d="M14.3318101,19.2043005 C14.3318101,20.4887272 13.2871182,21.5297386 11.9981505,21.5297386 C10.7091827,21.5297386 9.66449084,20.4887272 9.66449084,19.2043005 C9.66449084,17.9198738 10.7091827,16.8788624 11.9981505,16.8788624 C13.2871182,16.8788624 14.3318101,17.9198738 14.3318101,19.2043005 L14.3318101,19.2043005 Z" id="Stroke-15" stroke="#F58E3D" stroke-width="0.66" stroke-linecap="round"></path>
                <path d="M7.11635803,28.954356 C7.11635803,26.2391353 9.32521877,24.0377912 12.0503052,24.0377912 C14.7751256,24.0377912 16.9839864,26.2391353 16.9839864,28.954356" id="Stroke-17" stroke="#F58E3D" stroke-width="0.66" stroke-linecap="round"></path>
                <path d="M54.8612514,40.258027 C54.8612514,46.5009135 49.7825481,51.5617244 43.51759,51.5617244 C37.2526319,51.5617244 32.1739286,46.5009135 32.1739286,40.258027 C32.1739286,34.0151404 37.2526319,28.9543295 43.51759,28.9543295 C49.7825481,28.9543295 54.8612514,34.0151404 54.8612514,40.258027" id="Fill-19" fill="#FDF1E5"></path>
                <path d="M54.8612514,40.258027 C54.8612514,46.5009135 49.7825481,51.5617244 43.51759,51.5617244 C37.2526319,51.5617244 32.1739286,46.5009135 32.1739286,40.258027 C32.1739286,34.0151404 37.2526319,28.9543295 43.51759,28.9543295 C49.7825481,28.9543295 54.8612514,34.0151404 54.8612514,40.258027 L54.8612514,40.258027 Z" id="Stroke-21" stroke="#F58E3D" stroke-width="0.66" stroke-linecap="round"></path>
                <polyline id="Stroke-23" stroke="#F58E3D" stroke-width="0.66" stroke-linecap="round" stroke-linejoin="round" points="38.3730014 40.258027 42.6095117 44.1102464 49.8986723 36.4058075"></polyline>
            </g>
        </g>
    </g>
</svg>